<svg xmlns="http://www.w3.org/2000/svg" width="24" height="24" viewBox="0 0 24 24" fill="none" stroke="currentColor" stroke-width="2" stroke-linecap="round" stroke-linejoin="round" class="lucide lucide-brain-circuit"><path d="M12 4.5a2.5 2.5 0 0 0-4.96-.46 2.5 2.5 0 0 0-1.98 3 2.5 2.5 0 0 0-1.32 4.24 3 3 0 0 0 .34 5.58 2.5 2.5 0 0 0 2.96 3.08 2.5 2.5 0 0 0 4.91.05L12 20V4.5Z"></path><path d="M16 8V5c0-1.1.9-2 2-2"></path><path d="M12 13h4"></path><path d="M12 18h6a2 2 0 0 1 2 2v1"></path><path d="M12 8h8"></path><path d="M20.5 8a.5.5 0 1 1-1 0 .5.5 0 0 1 1 0Z"></path><path d="M16.5 13a.5.5 0 1 1-1 0 .5.5 0 0 1 1 0Z"></path><path d="M20.5 21a.5.5 0 1 1-1 0 .5.5 0 0 1 1 0Z"></path><path d="M18.5 3a.5.5 0 1 1-1 0 .5.5 0 0 1 1 0Z"></path></svg>