<svg width="512" height="512" viewBox="0 0 512 512" fill="none" xmlns="http://www.w3.org/2000/svg">
<path fill-rule="evenodd" clip-rule="evenodd" d="M286.089 86.4599L286.26 86.1146L290.031 93.9349C291.759 92.9491 293.514 91.9921 295.298 91.0641C316.803 79.5108 340.59 73.8741 366.282 73.8741C390.034 73.8741 412.502 79.428 433.431 90.4952C442.785 95.3563 451.547 100.956 459.709 107.286L490.802 74.3033L498.186 127.728L498.456 127.453L512 229.228L409.982 217.659L410.107 217.532L359.107 211.926L388.643 181.272C388.524 181.199 388.404 181.126 388.285 181.053C388.204 181.004 388.123 180.954 388.043 180.903C387.993 180.872 387.944 180.841 387.895 180.809C380.947 176.343 372.852 173.941 363.043 173.941C351.762 173.941 345.592 176.845 341.955 180.317L341.94 180.331C337.935 184.145 336.167 188.27 336.167 193.8C336.167 196.498 336.906 198.705 340.661 201.436C348.102 206.847 358.486 213.783 371.952 222.29L406.297 243.219C424.916 254.323 439.714 267.669 449.518 283.668C459.717 299.944 464.08 319.902 464.08 342.222C464.08 366.764 457.582 389.512 444.598 410.052C431.927 430.308 414.085 446.095 391.683 457.499C368.889 469.103 342.601 474.562 313.39 474.562C287.656 474.562 262.626 468.913 238.45 457.816C238.404 457.795 238.358 457.774 238.312 457.752C238.25 457.723 238.188 457.694 238.127 457.664C235.287 456.291 232.488 454.824 229.73 453.265C227.207 454.738 224.619 456.149 221.968 457.499C199.174 469.103 172.886 474.562 143.675 474.562C117.941 474.562 92.9112 468.913 68.7346 457.816C68.6265 457.766 68.519 457.716 68.412 457.664C43.7043 445.722 22.1405 426.677 3.50548 401.442C-2.24992 393.648 -0.768639 382.691 6.8496 376.705L59.7417 335.147C63.6094 332.108 68.5564 330.793 73.4228 331.509C78.2892 332.225 82.6472 334.911 85.4753 338.935C93.3755 350.178 102.991 359.199 114.397 366.147C125.848 372.559 137.33 375.575 149.072 375.575C161.351 375.575 169.408 372.68 174.846 368.497C179.46 364.948 181.885 360.478 181.885 353.016C181.885 349.355 180.799 347.032 177.611 344.603C177.357 344.409 177.108 344.209 176.865 344.002C170.596 338.674 161.522 332.189 149.335 324.525L115.96 304.069L115.889 304.026L115.858 304.006L115.801 303.971L115.774 303.953L115.703 303.909C98.2427 292.797 83.7332 279.626 72.5288 264.272C72.4219 264.126 72.3173 263.978 72.2149 263.828C60.2837 246.39 55.0518 224.932 55.0518 200.817C55.0518 177.262 61.4238 155.609 74.2529 136.365L74.3028 136.291C87.2016 117.151 104.423 102.074 125.583 91.0641C147.088 79.5108 170.875 73.8741 196.567 73.8741C212.346 73.8741 227.56 76.3254 242.131 81.216L262.416 38L286.089 86.4599ZM291.465 369.798C300.486 373.711 309.556 375.575 318.787 375.575C331.066 375.575 339.123 372.68 344.561 368.497C349.175 364.948 351.6 360.478 351.6 353.016C351.6 349.355 350.514 347.032 347.326 344.603C347.28 344.568 347.234 344.532 347.188 344.497C347.145 344.463 347.102 344.43 347.059 344.396C346.897 344.267 346.737 344.136 346.58 344.002C340.311 338.674 331.237 332.189 319.05 324.525L289.846 306.626C292.949 317.562 294.365 329.509 294.365 342.222C294.365 351.689 293.398 360.889 291.465 369.798ZM230.169 239.311C226.476 227.517 224.767 214.601 224.767 200.817C224.767 200.689 224.767 200.562 224.767 200.435L182.344 209.37C188.008 213.181 194.631 217.485 202.237 222.29L230.169 239.311ZM197.445 174.088C196.107 173.99 194.735 173.941 193.328 173.941C182.047 173.941 175.877 176.845 172.24 180.317L172.225 180.331C168.22 184.145 166.452 188.27 166.452 193.8C166.452 196.498 167.191 198.705 170.946 201.436C173.818 203.525 177.129 205.841 180.887 208.387L197.445 174.088Z" fill="white"/>
<path d="M207.13 189.922L307.67 169.106L263.069 76.6274L249.771 103.56C233.053 95.7161 215.318 91.7944 196.567 91.7944C173.539 91.7944 152.67 96.8317 133.96 106.906C115.25 116.621 100.318 129.754 89.1635 146.306C78.3692 162.497 72.972 180.667 72.972 200.817C72.972 222.405 77.6496 240.036 87.0046 253.709C96.7195 267.022 109.493 278.716 125.324 288.79L158.787 309.299C171.38 317.215 181.275 324.232 188.471 330.348C196.027 336.105 199.805 343.661 199.805 353.016C199.805 354.981 199.691 356.88 199.463 358.713L229.457 335.147C233.324 332.108 238.271 330.793 243.138 331.509C248.004 332.225 252.362 334.911 255.19 338.935C260.913 347.079 267.535 354.057 275.087 359.926C275.992 354.171 276.445 348.269 276.445 342.222C276.445 322.073 272.487 305.701 264.571 293.108C256.655 280.155 244.242 268.641 227.33 258.566L192.789 237.517C179.116 228.882 168.322 221.686 160.406 215.929C152.49 210.172 148.532 202.796 148.532 193.8C148.532 183.366 152.31 174.551 159.866 167.354C167.782 159.798 178.936 156.02 193.328 156.02C203.412 156.02 212.623 157.983 220.962 161.907L207.13 189.922Z" fill="#F6E338"/>
<path d="M173.22 401.442C170.847 398.228 169.704 394.476 169.715 390.757C163.564 392.582 156.683 393.495 149.072 393.495C133.96 393.495 119.388 389.537 105.355 381.621C91.6822 373.346 80.1682 362.551 70.8132 349.238L17.9211 390.796C35.192 414.184 54.6217 431.095 76.2103 441.53C98.1587 451.604 120.647 456.642 143.675 456.642C170.152 456.642 193.166 451.792 212.716 442.093C198.31 431.246 185.164 417.615 173.22 401.442Z" fill="#F6E338"/>
<path d="M326.831 170.237L297.837 110.12C299.74 109.01 301.686 107.939 303.675 106.906C322.385 96.8317 343.254 91.7943 366.282 91.7943C387.151 91.7943 406.76 96.6517 425.111 106.367C437.784 112.947 449.22 121.014 459.417 130.566L479.114 110.145L493.508 211.803L391.396 201.087L414.064 177.586C408.742 173.124 403.249 169.174 397.585 165.735C387.51 159.259 375.997 156.02 363.043 156.02C348.651 156.02 337.497 159.798 329.581 167.354C328.601 168.288 327.684 169.249 326.831 170.237Z" fill="#F05138"/>
<path d="M242.687 200.817C242.687 199.48 242.711 198.153 242.758 196.834L320.529 180.732C319.008 184.762 318.247 189.118 318.247 193.8C318.247 202.796 322.205 210.172 330.121 215.929C338.037 221.686 348.831 228.882 362.504 237.517L397.045 258.566C413.956 268.641 426.37 280.155 434.286 293.108C442.202 305.701 446.159 322.073 446.159 342.222C446.159 363.451 440.582 382.88 429.428 400.511C418.634 417.782 403.342 431.455 383.553 441.529C363.763 451.604 340.375 456.641 313.39 456.641C290.362 456.641 267.874 451.604 245.925 441.529C224.337 431.095 204.907 414.184 187.636 390.796L240.528 349.238C249.883 362.551 261.397 373.346 275.07 381.621C289.102 389.537 303.675 393.495 318.787 393.495C333.899 393.495 346.132 389.897 355.487 382.701C364.842 375.504 369.52 365.61 369.52 353.016C369.52 343.661 365.742 336.105 358.186 330.348C350.99 324.231 341.095 317.215 328.502 309.299L295.039 288.79C279.208 278.716 266.434 267.022 256.72 253.709C247.365 240.036 242.687 222.405 242.687 200.817Z" fill="#F05138"/>
</svg>
