<svg width="1006" height="230" viewBox="0 0 1006 230" fill="none" xmlns="http://www.w3.org/2000/svg">
<g clip-path="url(#clip0_734_321)">
<rect x="7.1875" y="7.1875" width="215.625" height="215.625" rx="107.812" fill="white"/>
<path d="M128.734 114.785C130.756 111.444 131.225 105.062 124.55 101.033C115.434 95.7704 112.311 84.1144 117.574 74.9989C119.323 71.9697 121.777 69.6023 124.61 67.9845C127.652 66.0749 131.115 64.9469 134.822 64.7272C140.907 64.3667 146.384 66.5087 150.633 69.2283C159.06 74.6225 166.751 84.7036 168.65 98.2032C170.827 113.682 164.887 126.878 157.365 135.327C149.842 143.776 131.209 158.53 92.6941 154.599L107.59 127.721C122.059 123.197 126.712 118.126 128.734 114.785Z" fill="url(#paint0_linear_734_321)"/>
<path d="M105.386 162.018C111.118 158.731 114.979 152.553 114.979 145.472C114.979 138.374 111.099 132.182 105.344 128.902C98.7799 124.871 99.2546 118.538 101.266 115.215C103.288 111.874 107.941 106.803 122.409 102.279L137.306 75.4013C98.7904 71.4703 80.1575 86.2238 72.6349 94.6728C65.1124 103.122 59.1734 116.318 61.3501 131.797C63.2484 145.296 70.94 155.377 79.3673 160.772C83.6163 163.491 89.093 165.633 95.1779 165.273C98.8837 165.053 102.345 163.926 105.386 162.018Z" fill="url(#paint1_linear_734_321)"/>
<path fill-rule="evenodd" clip-rule="evenodd" d="M230 115C230 51.4873 178.513 0 115 0V0C51.4873 0 0 51.4873 0 115V115C0 178.513 51.4873 230 115 230V230C178.513 230 230 178.513 230 115V115ZM115 208.438C166.604 208.438 208.438 166.604 208.438 115C208.438 63.3959 166.604 21.5625 115 21.5625C63.3959 21.5625 21.5625 63.3959 21.5625 115C21.5625 166.604 63.3959 208.438 115 208.438Z" fill="black"/>
</g>
<path fill-rule="evenodd" clip-rule="evenodd" d="M317.688 182.924C326.573 186.713 335.981 188.608 345.912 188.608H426.612V161.756H402.838C407.292 156.348 410.922 150.403 413.728 143.92C417.648 135.035 419.608 125.561 419.608 115.5C419.608 105.569 417.648 96.1613 413.728 87.276C409.939 78.3907 404.647 70.5507 397.852 63.756C391.057 56.9613 383.217 51.6693 374.332 47.88C365.447 43.96 355.973 42 345.912 42C335.851 42 326.377 43.96 317.492 47.88C308.737 51.6693 300.963 56.9613 294.168 63.756C287.504 70.5507 282.277 78.3907 278.488 87.276C274.829 96.1613 273 105.504 273 115.304C273 125.627 274.829 135.231 278.488 144.116C282.277 152.871 287.504 160.58 294.168 167.244C300.963 173.908 308.803 179.135 317.688 182.924ZM299.656 115.5C299.656 124.255 301.747 132.291 305.928 139.608C310.109 146.925 315.728 152.74 322.784 157.052C329.971 161.364 338.007 163.52 346.892 163.52C355.516 163.52 363.291 161.364 370.216 157.052C377.272 152.74 382.825 146.925 386.876 139.608C390.927 132.291 392.952 124.255 392.952 115.5C392.952 108.836 391.711 102.629 389.228 96.88C386.876 91 383.544 85.904 379.232 81.592C375.051 77.1493 370.151 73.6867 364.532 71.204C358.913 68.7213 352.837 67.48 346.304 67.48C337.419 67.48 329.448 69.7013 322.392 74.144C315.336 78.456 309.783 84.2053 305.732 91.392C301.681 98.5787 299.656 106.615 299.656 115.5ZM1005.63 181H983.627V134C983.627 127.925 978.703 123 972.627 123C966.559 123 961.639 127.913 961.627 133.979V134V181H939.627V134V133.98C939.617 127.914 934.696 123 928.627 123C922.552 123 917.627 127.925 917.627 134V181H895.627V134C895.627 115.775 910.402 101 928.627 101C937.079 101 944.789 104.177 950.627 109.403C956.466 104.177 964.176 101 972.627 101C990.853 101 1005.63 115.775 1005.63 134V181ZM801.627 101H823.627V144C823.627 152.284 830.343 159 838.627 159C846.912 159 853.627 152.284 853.627 144V101H875.627V144C875.627 164.435 859.062 181 838.627 181C818.193 181 801.627 164.435 801.627 144V101ZM746.127 151C746.294 151 746.461 150.998 746.627 150.995V151L756.627 151C759.389 151 761.627 153.239 761.627 156C761.627 158.761 759.389 161 756.627 161H723.627V181H756.627V180.995C770.48 180.734 781.627 169.643 781.627 156C781.627 142.357 770.48 131.266 756.627 131.005V131H746.627C743.866 131 741.627 128.761 741.627 126C741.627 123.239 743.866 121 746.627 121H778.627V101H746.627V101.005C746.461 101.002 746.294 101 746.127 101C732.596 101 721.627 112.193 721.627 126C721.627 139.807 732.596 151 746.127 151ZM667.627 150.995C667.461 150.998 667.294 151 667.127 151C653.596 151 642.627 139.807 642.627 126C642.627 112.193 653.596 101 667.127 101C667.215 101 667.303 101 667.391 101.001C667.441 101.002 667.492 101.003 667.542 101.003L667.627 101.005V101H699.627V121H667.627C664.866 121 662.627 123.239 662.627 126C662.627 128.761 664.866 131 667.627 131H677.627V131.005C691.48 131.266 702.627 142.357 702.627 156C702.627 169.643 691.48 180.734 677.627 180.995V181H644.627V161H677.627C680.389 161 682.627 158.761 682.627 156C682.627 153.239 680.389 151 677.627 151L667.627 151V150.995ZM601.961 174.842C595.786 178.743 588.471 181 580.627 181C558.536 181 540.627 163.091 540.627 141C540.627 118.909 558.536 101 580.627 101C602.719 101 620.627 118.909 620.627 141V181H601.961V174.842ZM599.627 141C599.627 151.493 591.121 160 580.627 160C570.134 160 561.627 151.493 561.627 141C561.627 130.507 570.134 122 580.627 122C591.121 122 599.627 130.507 599.627 141ZM446.627 101H468.627V144C468.627 152.284 475.343 159 483.627 159C491.912 159 498.627 152.284 498.627 144V101H520.627V144C520.627 164.435 504.062 181 483.627 181C463.193 181 446.627 164.435 446.627 144V101Z" fill="black"/>
<defs>
<linearGradient id="paint0_linear_734_321" x1="136.154" y1="113.502" x2="110.742" y2="132.56" gradientUnits="userSpaceOnUse">
<stop/>
<stop offset="1" stop-opacity="0"/>
</linearGradient>
<linearGradient id="paint1_linear_734_321" x1="93.8462" y1="116.498" x2="119.258" y2="97.4397" gradientUnits="userSpaceOnUse">
<stop/>
<stop offset="1" stop-opacity="0"/>
</linearGradient>
<clipPath id="clip0_734_321">
<rect width="230" height="230" fill="white"/>
</clipPath>
</defs>
</svg>
