<svg width="647" height="647" viewBox="0 0 647 647" fill="none" xmlns="http://www.w3.org/2000/svg">
  <path fill-rule="evenodd" clip-rule="evenodd"
    d="M354.119 152.644L353.957 152.971L331.5 107L312.257 147.997C298.433 143.357 284.001 141.032 269.032 141.032C244.66 141.032 222.094 146.379 201.693 157.339C181.62 167.783 165.283 182.086 153.046 200.243L152.999 200.314C140.829 218.57 134.784 239.111 134.784 261.456C134.784 284.333 139.747 304.689 151.066 321.232C151.163 321.374 151.262 321.514 151.364 321.653C161.993 336.219 175.757 348.713 192.321 359.254L192.388 359.297L192.414 359.313L192.468 359.346L192.498 359.365L192.564 359.406L224.226 378.812C235.787 386.082 244.395 392.234 250.342 397.289C250.573 397.485 250.808 397.675 251.049 397.858C254.074 400.163 255.104 402.366 255.104 405.84C255.104 412.918 252.804 417.159 248.427 420.525C243.268 424.494 235.625 427.24 223.976 427.24C212.837 427.24 201.945 424.379 191.082 418.296C180.261 411.705 171.14 403.147 163.645 392.482C160.962 388.664 156.828 386.117 152.212 385.437C147.595 384.758 142.902 386.006 139.233 388.889L89.057 428.313C81.83 433.991 80.4248 444.385 85.8846 451.779C103.563 475.718 124.019 493.785 147.458 505.114C147.56 505.163 147.662 505.211 147.764 505.258C170.699 515.786 194.443 521.144 218.856 521.144C246.567 521.144 271.506 515.966 293.129 504.958C295.644 503.677 298.099 502.338 300.492 500.941C294.937 497.8 289.558 494.263 284.352 490.343C265.806 499.544 243.974 504.144 218.856 504.144C197.011 504.144 175.677 499.365 154.856 489.808C138.704 482.001 123.826 470.373 110.222 454.923C109.207 453.77 108.199 452.596 107.198 451.401C104.604 448.303 102.058 445.063 99.56 441.68L149.736 402.256C152.106 405.629 154.623 408.832 157.285 411.864C164.591 420.185 172.997 427.222 182.504 432.976C195.816 440.485 209.64 444.24 223.976 444.24C231.196 444.24 237.724 443.374 243.559 441.642C243.574 436.615 245.81 431.649 250.057 428.313L271.78 411.245C271.996 409.505 272.104 407.704 272.104 405.84C272.104 396.965 268.52 389.797 261.352 384.336C254.525 378.533 245.139 371.877 233.192 364.368L201.448 344.912C186.429 335.355 174.312 324.261 165.096 311.632C156.221 298.661 151.784 281.936 151.784 261.456C151.784 242.341 156.904 225.104 167.144 209.744C177.725 194.043 191.891 181.584 209.64 172.368C227.389 162.811 247.187 158.032 269.032 158.032C286.821 158.032 303.645 161.752 319.504 169.193L332.119 143.644L374.43 231.374L279.053 251.12L292.174 224.545C284.264 220.822 275.525 218.96 265.96 218.96C252.307 218.96 241.725 222.544 234.216 229.712C227.048 236.539 223.464 244.901 223.464 254.8C223.464 263.333 227.219 270.331 234.728 275.792C242.237 281.253 252.477 288.08 265.448 296.272L298.216 316.24C314.259 325.797 326.035 336.72 333.544 349.008C341.053 360.955 344.808 376.485 344.808 395.6C344.808 401.337 344.379 406.935 343.52 412.395C346.246 414.513 349.099 416.479 352.082 418.296C354.405 419.597 356.729 420.75 359.057 421.76C360.891 413.308 361.808 404.581 361.808 395.6C361.808 383.54 360.465 372.207 357.522 361.832L353.564 359.406C353.524 359.382 353.484 359.357 353.445 359.332C353.403 359.306 353.362 359.28 353.321 359.254C336.757 348.713 322.993 336.219 312.364 321.653C312.32 321.594 312.277 321.534 312.235 321.474C312.178 321.394 312.121 321.313 312.066 321.232C307.217 314.145 303.534 306.358 300.909 297.973L274.411 281.826C267.196 277.268 260.913 273.185 255.539 269.57L301.128 259.969L301.053 260.12L396.43 240.374L354.119 152.644ZM265.96 235.96C267.295 235.96 268.596 236.007 269.866 236.1L254.158 268.638C250.593 266.222 247.452 264.025 244.727 262.043C241.165 259.453 240.464 257.359 240.464 254.8C240.464 249.554 242.141 245.64 245.94 242.022L245.954 242.009C249.404 238.716 255.258 235.96 265.96 235.96Z"
    fill="white" />
  <path
    d="M279.053 251.12L374.43 231.374L332.119 143.644L319.504 169.193C303.645 161.752 286.821 158.032 269.032 158.032C247.187 158.032 227.389 162.811 209.64 172.368C191.891 181.584 177.725 194.043 167.144 209.744C156.904 225.104 151.784 242.341 151.784 261.456C151.784 281.936 156.221 298.661 165.096 311.632C174.312 324.261 186.429 335.355 201.448 344.912L233.192 364.368C245.139 371.877 254.525 378.533 261.352 384.336C268.52 389.797 272.104 396.965 272.104 405.84C272.104 407.704 271.996 409.505 271.78 411.245L300.233 388.889C303.902 386.006 308.595 384.758 313.212 385.437C317.828 386.117 321.962 388.664 324.645 392.482C330.074 400.207 336.356 406.827 343.52 412.395C344.379 406.935 344.808 401.337 344.808 395.6C344.808 376.485 341.053 360.955 333.544 349.008C326.035 336.72 314.259 325.797 298.216 316.24L265.448 296.272C252.477 288.08 242.237 281.253 234.728 275.792C227.219 270.331 223.464 263.333 223.464 254.8C223.464 244.901 227.048 236.539 234.216 229.712C241.725 222.544 252.307 218.96 265.96 218.96C275.525 218.96 284.264 220.822 292.174 224.545L279.053 251.12Z"
    fill="#F6E338" />
  <path
    d="M246.885 451.779C244.633 448.73 243.549 445.171 243.559 441.642C237.724 443.374 231.196 444.24 223.976 444.24C209.64 444.24 195.816 440.485 182.504 432.976C169.533 425.125 158.611 414.885 149.736 402.256L99.56 441.68C115.944 463.867 134.376 479.909 154.856 489.808C175.677 499.365 197.011 504.144 218.856 504.144C243.974 504.144 265.806 499.544 284.352 490.343C270.686 480.052 258.215 467.121 246.885 451.779Z"
    fill="#F6E338" />
  <path
    d="M485.84 171.856C497.863 178.099 508.711 185.751 518.385 194.813L537.07 175.44L550.725 271.878L453.857 261.712L475.361 239.418C470.312 235.185 465.101 231.438 459.728 228.176C450.171 222.032 439.248 218.96 426.96 218.96C413.307 218.96 402.725 222.544 395.216 229.712C394.286 230.598 393.416 231.509 392.607 232.447L396.43 240.374L386.629 242.403C385.186 246.226 384.464 250.358 384.464 254.8C384.464 263.333 388.219 270.331 395.728 275.792C403.237 281.253 413.477 288.08 426.448 296.272L459.216 316.24C475.259 325.797 487.035 336.72 494.544 349.008C502.053 360.955 505.808 376.485 505.808 395.6C505.808 415.739 500.517 434.171 489.936 450.896C479.696 467.28 465.189 480.251 446.416 489.808C427.643 499.365 405.456 504.144 379.856 504.144C358.011 504.144 336.677 499.365 315.856 489.808C299.704 482.001 284.826 470.373 271.222 454.923C270.207 453.77 269.199 452.596 268.198 451.401C265.604 448.303 263.058 445.063 260.56 441.68L310.736 402.256C313.106 405.629 315.622 408.832 318.285 411.864C325.591 420.185 333.997 427.222 343.504 432.976C356.816 440.485 370.64 444.24 384.976 444.24C399.312 444.24 410.917 440.827 419.792 434C428.667 427.173 433.104 417.787 433.104 405.84C433.104 396.965 429.52 389.797 422.352 384.336C415.525 378.533 406.139 371.877 394.192 364.368L362.448 344.912C347.429 335.355 335.312 324.261 326.096 311.632C317.221 298.661 312.784 281.936 312.784 261.456C312.784 260.188 312.806 258.929 312.852 257.678L301.053 260.12L301.128 259.969L295.785 261.094C295.784 261.215 295.784 261.335 295.784 261.456C295.784 274.533 297.406 286.785 300.909 297.973C303.534 306.358 307.217 314.145 312.066 321.232C312.121 321.313 312.178 321.394 312.235 321.474C312.266 321.518 312.297 321.561 312.328 321.605L312.364 321.653C313.692 323.474 315.07 325.262 316.496 327.018C326.477 339.312 338.828 350.031 353.321 359.254C353.359 359.279 353.397 359.303 353.436 359.327L353.481 359.355L353.564 359.406L385.226 378.812C396.787 386.082 405.395 392.234 411.342 397.289C411.573 397.485 411.808 397.675 412.049 397.858C415.074 400.163 416.104 402.366 416.104 405.84C416.104 412.918 413.804 417.159 409.427 420.525C404.268 424.494 396.625 427.24 384.976 427.24C376.219 427.24 367.615 425.472 359.057 421.76C356.729 420.75 354.405 419.597 352.082 418.296C351.896 418.183 351.71 418.069 351.524 417.954C348.743 416.233 346.076 414.381 343.52 412.395C336.356 406.827 330.074 400.207 324.645 392.482C321.962 388.664 317.828 386.117 313.212 385.437C308.595 384.758 303.902 386.006 300.233 388.889L250.057 428.313C249.526 428.73 249.027 429.172 248.559 429.637C246.303 431.881 244.787 434.646 244.059 437.588C243.731 438.914 243.563 440.276 243.559 441.642C243.549 445.171 244.633 448.73 246.885 451.779C258.215 467.121 270.686 480.052 284.352 490.343C289.558 494.263 294.937 497.8 300.492 500.941C303.108 502.42 305.764 503.812 308.458 505.114C308.516 505.142 308.575 505.17 308.634 505.198C308.677 505.218 308.721 505.238 308.764 505.258C331.699 515.786 355.443 521.144 379.856 521.144C407.567 521.144 432.506 515.966 454.129 504.958C475.38 494.139 492.306 479.162 504.326 459.947C516.644 440.462 522.808 418.882 522.808 395.6C522.808 374.426 518.669 355.493 508.994 340.053C499.694 324.875 485.655 312.215 467.993 301.681L435.411 281.826C422.637 273.756 412.785 267.177 405.727 262.043C402.165 259.453 401.464 257.359 401.464 254.8C401.464 249.554 403.141 245.64 406.94 242.022L406.954 242.009C410.404 238.716 416.258 235.96 426.96 235.96C436.265 235.96 443.944 238.239 450.535 242.476C450.658 242.555 450.781 242.632 450.905 242.707C451.019 242.776 451.132 242.845 451.245 242.915L423.225 271.995L471.607 277.313L471.488 277.434L568.268 288.409L555.419 191.86L555.163 192.121L548.158 141.439L518.661 172.728C510.919 166.723 502.606 161.411 493.733 156.799C473.879 146.301 452.564 141.032 430.032 141.032C405.66 141.032 383.094 146.379 362.693 157.339C361.001 158.22 359.336 159.127 357.697 160.063L365.102 175.416C366.907 174.364 368.753 173.348 370.64 172.368C388.389 162.811 408.187 158.032 430.032 158.032C449.829 158.032 468.432 162.64 485.84 171.856Z"
    fill="white" />
  <path
    d="M392.607 232.447L365.102 175.416C366.907 174.364 368.753 173.348 370.64 172.368C388.389 162.811 408.187 158.032 430.032 158.032C449.829 158.032 468.432 162.64 485.84 171.856C497.863 178.099 508.711 185.751 518.385 194.813L537.07 175.44L550.725 271.878L453.857 261.712L475.361 239.418C470.312 235.185 465.101 231.438 459.728 228.176C450.171 222.032 439.248 218.96 426.96 218.96C413.307 218.96 402.725 222.544 395.216 229.712C394.286 230.598 393.416 231.509 392.607 232.447Z"
    fill="#F05138" />
  <path
    d="M312.784 261.456C312.784 260.188 312.807 258.929 312.852 257.678L386.629 242.403C385.186 246.226 384.464 250.358 384.464 254.8C384.464 263.333 388.219 270.331 395.728 275.792C403.237 281.253 413.477 288.08 426.448 296.272L459.216 316.24C475.259 325.797 487.035 336.72 494.544 349.008C502.053 360.955 505.808 376.485 505.808 395.6C505.808 415.739 500.517 434.171 489.936 450.896C479.696 467.28 465.189 480.251 446.416 489.808C427.643 499.365 405.456 504.144 379.856 504.144C358.011 504.144 336.677 499.365 315.856 489.808C295.376 479.909 276.944 463.867 260.56 441.68L310.736 402.256C319.611 414.885 330.533 425.125 343.504 432.976C356.816 440.485 370.64 444.24 384.976 444.24C399.312 444.24 410.917 440.827 419.792 434C428.667 427.173 433.104 417.787 433.104 405.84C433.104 396.965 429.52 389.797 422.352 384.336C415.525 378.533 406.139 371.877 394.192 364.368L362.448 344.912C347.429 335.355 335.312 324.261 326.096 311.632C317.221 298.661 312.784 281.936 312.784 261.456Z"
    fill="#F05138" />
</svg>