<svg width="733" height="147" viewBox="0 0 733 147" fill="none" xmlns="http://www.w3.org/2000/svg">
<path fill-rule="evenodd" clip-rule="evenodd" d="M44.688 140.924C53.5733 144.713 62.9813 146.608 72.912 146.608H153.612V119.756H129.838C134.292 114.348 137.922 108.403 140.728 101.92C144.648 93.0347 146.608 83.5613 146.608 73.5C146.608 63.5693 144.648 54.1613 140.728 45.276C136.939 36.3907 131.647 28.5507 124.852 21.756C118.057 14.9613 110.217 9.66933 101.332 5.87999C92.4467 1.96 82.9733 0 72.912 0C62.8507 0 53.3773 1.96 44.492 5.87999C35.7373 9.66933 27.9627 14.9613 21.168 21.756C14.504 28.5507 9.27733 36.3907 5.488 45.276C1.82933 54.1613 0 63.504 0 73.304C0 83.6267 1.82933 93.2307 5.488 102.116C9.27733 110.871 14.504 118.58 21.168 125.244C27.9627 131.908 35.8027 137.135 44.688 140.924ZM26.656 73.5C26.656 82.2547 28.7467 90.2907 32.928 97.608C37.1093 104.925 42.728 110.74 49.784 115.052C56.9707 119.364 65.0067 121.52 73.892 121.52C82.516 121.52 90.2907 119.364 97.216 115.052C104.272 110.74 109.825 104.925 113.876 97.608C117.927 90.2907 119.952 82.2547 119.952 73.5C119.952 66.836 118.711 60.6293 116.228 54.88C113.876 49 110.544 43.904 106.232 39.592C102.051 35.1493 97.1507 31.6867 91.532 29.204C85.9133 26.7213 79.8373 25.48 73.304 25.48C64.4187 25.48 56.448 27.7013 49.392 32.144C42.336 36.456 36.7827 42.2053 32.732 49.392C28.6813 56.5787 26.656 64.6147 26.656 73.5ZM732.627 139H710.627V92.0001C710.627 85.9248 705.703 81 699.627 81C693.559 81 688.639 85.9133 688.627 91.9787V92V139H666.627V92.0001V91.9803C666.617 85.9142 661.696 81 655.627 81C649.552 81 644.627 85.9248 644.627 91.9999V139H622.627V92.0001C622.627 73.7746 637.402 59 655.627 59C664.079 59 671.789 62.1773 677.627 67.4028C683.466 62.1773 691.176 59 699.627 59C717.853 59 732.627 73.7746 732.627 92V139ZM528.627 59H550.627V102C550.627 110.284 557.343 117 565.627 117C573.912 117 580.627 110.284 580.627 102V59H602.627V102C602.627 122.435 586.062 139 565.627 139C545.193 139 528.627 122.435 528.627 102V59ZM473.127 109C473.294 109 473.461 108.998 473.627 108.995V109L483.627 109C486.389 109 488.627 111.239 488.627 114C488.627 116.761 486.389 119 483.627 119H450.627V139H483.627V138.995C497.48 138.734 508.627 127.643 508.627 114C508.627 100.357 497.48 89.2658 483.627 89.0047V89H473.627C470.866 89 468.627 86.7614 468.627 84C468.627 81.2386 470.866 79 473.627 79H505.627V59H473.627V59.0051C473.461 59.0017 473.294 59 473.127 59C459.596 59 448.627 70.1929 448.627 84C448.627 97.8071 459.596 109 473.127 109ZM394.627 108.995C394.461 108.998 394.294 109 394.127 109C380.596 109 369.627 97.8071 369.627 84C369.627 70.1929 380.596 59 394.127 59C394.215 59 394.303 59.0005 394.391 59.0014C394.441 59.0019 394.492 59.0026 394.542 59.0035L394.627 59.0051V59H426.627V79H394.627C391.866 79 389.627 81.2386 389.627 84C389.627 86.7614 391.866 89 394.627 89H404.627V89.0047C418.48 89.2658 429.627 100.357 429.627 114C429.627 127.643 418.48 138.734 404.627 138.995V139H371.627V119H404.627C407.389 119 409.627 116.761 409.627 114C409.627 111.239 407.389 109 404.627 109L394.627 109V108.995ZM328.961 132.842C322.786 136.743 315.471 139 307.627 139C285.536 139 267.627 121.091 267.627 99C267.627 76.9086 285.536 59 307.627 59C329.719 59 347.627 76.9086 347.627 99V139H328.961V132.842ZM326.627 99C326.627 109.493 318.121 118 307.627 118C297.134 118 288.627 109.493 288.627 99C288.627 88.5066 297.134 80 307.627 80C318.121 80 326.627 88.5066 326.627 99ZM173.627 59H195.627V102C195.627 110.284 202.343 117 210.627 117C218.912 117 225.627 110.284 225.627 102V59H247.627V102C247.627 122.435 231.062 139 210.627 139C190.193 139 173.627 122.435 173.627 102V59Z" fill="currentColor"/>
</svg>
